<svg xmlns="http://www.w3.org/2000/svg" width="36" height="38" fill="none" viewBox="0 0 36 38">
  <path fill="#BB1F44" d="M21.149 28.94a4.511 4.511 0 0 0-4.53 4.53A4.511 4.511 0 0 0 21.15 38a4.51 4.51 0 0 0 4.53-4.53c0-2.453-2.076-4.53-4.53-4.53Zm0 6.292a1.692 1.692 0 0 1-1.699-1.699c0-.944.755-1.699 1.699-1.699.944 0 1.699.755 1.699 1.7 0 .88-.818 1.698-1.7 1.698ZM9.196 28.94a4.51 4.51 0 0 0-4.53 4.53A4.51 4.51 0 0 0 9.196 38a4.51 4.51 0 0 0 4.53-4.53c0-2.453-2.077-4.53-4.53-4.53Zm0 6.292a1.692 1.692 0 0 1-1.699-1.699c0-.944.755-1.699 1.699-1.699.944 0 1.699.755 1.699 1.7 0 .88-.755 1.698-1.7 1.698ZM34.425 0h-3.397c-1.51 0-2.831 1.132-3.02 2.642L27 9.877H2.151c-.63 0-1.26.315-1.7.818-.377.504-.566 1.196-.377 1.825v.126l3.9 11.765c.252.88 1.07 1.51 2.014 1.51h17.364c2.328 0 4.341-1.762 4.656-4.09L30.65 3.02c0-.126.126-.189.252-.189h3.397c.755 0 1.447-.629 1.447-1.447C35.746.566 35.18 0 34.425 0Zm-9.122 21.39a1.9 1.9 0 0 1-1.888 1.636H6.555L3.156 12.71H26.56l-1.259 8.682Z"/>
</svg>
