<svg xmlns="http://www.w3.org/2000/svg" width="32" height="38" fill="none" viewBox="0 0 32 38">
  <path fill="#BB1F44" d="M15.907 15.97c4.545 0 8.23-3.563 8.23-7.985 0-4.423-3.685-7.985-8.23-7.985s-8.23 3.562-8.23 7.985c0 4.422 3.685 7.984 8.23 7.984Zm0-13.145c3.01 0 5.466 2.334 5.466 5.221s-2.456 5.22-5.466 5.22c-3.01 0-5.466-2.333-5.466-5.22 0-2.887 2.457-5.22 5.466-5.22ZM19.9 18.733h-7.984C5.343 18.733 0 24.138 0 30.71v5.098c0 .737.614 1.413 1.413 1.413a1.39 1.39 0 0 0 1.412-1.413V30.71c0-5.036 4.115-9.213 9.213-9.213h7.924c5.036 0 9.213 4.115 9.213 9.213v5.098c0 .737.614 1.413 1.412 1.413A1.39 1.39 0 0 0 32 35.808V30.71c-.184-6.572-5.528-11.977-12.1-11.977Z"/>
</svg>
